<?xml version="1.0" standalone="no"?><!DOCTYPE svg PUBLIC "-//W3C//DTD SVG 1.1//EN" "http://www.w3.org/Graphics/SVG/1.1/DTD/svg11.dtd"><svg t="1516445814312" class="icon" style="" viewBox="0 0 1024 1024" version="1.1" xmlns="http://www.w3.org/2000/svg" p-id="3221" xmlns:xlink="http://www.w3.org/1999/xlink" width="128" height="128"><defs><style type="text/css"></style></defs><path d="M886.340267 473.52832c-134.772053 39.335253-226.461013 2.80576-307.725654-35.208533-74.018133-34.63168-183.599787-107.001173-249.965226-231.758507l-94.696107 3.140267c8.77568 165.461333 84.872533 365.68064 247.934293 434.00192 161.47456 67.652267 343.668053 9.198933 467.64032-98.07872l-63.187626-72.096427z" fill="#FFE60F" p-id="3222"></path><path d="M628.125013 693.118293h-0.01024c-53.940907 0-105.803093-10.27072-154.14272-30.522026-178.537813-74.806613-251.897173-290.14016-260.47488-451.80928a20.48 20.48 0 0 1 19.77344-21.551787l94.696107-3.140267a20.50048 20.50048 0 0 1 18.75968 10.850987c67.956053 127.744 179.889493 194.440533 240.564907 222.829227 54.309547 25.40544 113.483093 50.213547 186.897066 50.210133 34.46784 0 69.2736-5.270187 106.41408-16.110933a20.483413 20.483413 0 0 1 21.13536 6.161066l63.19104 72.093014a20.483413 20.483413 0 0 1-2.003626 28.986026c-96.94208 83.88608-218.978987 132.00384-334.800214 132.00384zM255.860053 229.464747c12.755627 146.896213 80.264533 330.960213 233.939627 395.349333 43.301547 18.141867 89.83552 27.344213 138.31168 27.344213 99.96288 0 205.366613-39.451307 292.164267-108.837546l-40.8576-46.61248c-36.256427 9.567573-70.802773 14.230187-105.22624 14.2336-81.821013 0-145.769813-26.709333-204.25728-54.070614-63.501653-29.709653-179.234133-98.51904-253.190827-229.423786l-60.883627 2.01728z" fill="#DDC93A" p-id="3223"></path><path d="M281.709227 223.522133m-49.52064 0a49.52064 49.52064 0 1 0 99.04128 0 49.52064 49.52064 0 1 0-99.04128 0Z" fill="#FFE60F" p-id="3224"></path><path d="M281.709227 293.522773c-38.597973 0-70.00064-31.402667-70.00064-70.00064 0-38.601387 31.402667-70.004053 70.00064-70.004053s70.00064 31.402667 70.00064 70.004053c0 38.597973-31.402667 70.00064-70.00064 70.00064z m0-99.04128c-16.011947 0-29.04064 13.028693-29.04064 29.044054 0 16.011947 13.028693 29.04064 29.04064 29.04064s29.04064-13.02528 29.04064-29.04064c0-16.018773-13.02528-29.044053-29.04064-29.044054z" fill="#DDC93A" p-id="3225"></path><path d="M951.872853 538.49088c-10.574507 25.234773-39.58784 37.106347-64.812373 26.538667-25.22112-10.574507-37.106347-39.591253-26.525013-64.815787 10.564267-25.227947 39.58784-37.102933 64.805546-26.535253 25.217707 10.56768 37.102933 39.584427 26.53184 64.812373z" fill="#FFE60F" p-id="3226"></path><path d="M906.17856 589.370027c-9.304747 0-18.40128-1.83296-27.0336-5.451094a69.553493 69.553493 0 0 1-37.727573-38.045013 69.5296 69.5296 0 0 1 0.22528-53.58592 69.843627 69.843627 0 0 1 64.580266-42.953387c9.304747 0 18.397867 1.836373 27.026774 5.451094 35.601067 14.91968 52.421973 56.019627 37.50912 91.613866a69.853867 69.853867 0 0 1-64.580267 42.970454z m0.047787-99.072a28.992853 28.992853 0 0 0-26.804907 17.82784 28.842667 28.842667 0 0 0-0.098987 22.234453 28.85632 28.85632 0 0 0 15.65696 15.786667 29.003093 29.003093 0 0 0 38.004054-15.568214c6.188373-14.769493-0.78848-31.822507-15.561387-38.01088a28.740267 28.740267 0 0 0-11.195733-2.269866z" fill="#DDC93A" p-id="3227"></path><path d="M630.893227 605.12256c-175.127893 0-258.829653-136.87808-262.396587-142.85824a20.48 20.48 0 0 1 7.09632-28.081493 20.476587 20.476587 0 0 1 28.061013 7.062186c3.25632 5.39648 79.940267 129.385813 239.745707 122.65472a20.48 20.48 0 1 1 1.706667 40.925867 339.172693 339.172693 0 0 1-14.21312 0.29696z" fill="#FFFFFF" p-id="3228"></path><path d="M345.934507 385.993387m-24.763734 0a24.763733 24.763733 0 1 0 49.527467 0 24.763733 24.763733 0 1 0-49.527467 0Z" fill="#FFFFFF" p-id="3229"></path><path d="M734.849707 710.488747c-137.95328-26.067627-232.389973-89.992533-287.576747-160.740694-50.26816-64.43008-115.104427-178.62656-117.681493-319.921493l-85.818027-40.1408C176.554667 341.12512 153.565867 554.0864 267.90912 688.933547c113.220267 133.522773 331.40736 153.838933 490.550613 114.45248l-23.610026-92.89728z" fill="#FFE60F" p-id="3230"></path><path d="M608.197973 841.765547h-0.017066c-150.954667-0.003413-280.674987-50.88256-355.8912-139.588267C127.095467 554.53696 159.37536 329.352533 225.05472 181.377707a20.48 20.48 0 0 1 27.395413-10.243414l85.818027 40.144214a20.48 20.48 0 0 1 11.799893 18.176c2.638507 144.6912 72.15104 254.887253 113.349974 307.698346 59.712853 76.547413 157.457067 130.95936 275.234133 153.214294a20.48 20.48 0 0 1 16.04608 15.080106l23.610027 92.89728a20.48 20.48 0 0 1-14.92992 24.92416c-48.896 12.100267-102.560427 18.496853-155.180374 18.496854zM254.337707 217.238187c-55.25504 136.707413-78.568107 331.369813 29.190826 458.448213 67.42016 79.5136 185.7536 125.115733 324.652374 125.119147h0.017066c42.21952 0 85.101227-4.379307 125.242027-12.72832l-15.261013-60.033707c-121.856-25.606827-223.440213-84.148907-287.054507-165.700267-43.12064-55.268693-115.05664-169.069227-121.613653-319.300266l-55.17312-25.8048z" fill="#DDC93A" p-id="3231"></path><path d="M280.070827 223.668907m-49.52064 0a49.52064 49.52064 0 1 0 99.04128 0 49.52064 49.52064 0 1 0-99.04128 0Z" fill="#FFE60F" p-id="3232"></path><path d="M280.070827 293.669547c-38.597973 0-70.00064-31.402667-70.00064-70.00064 0-38.601387 31.402667-70.004053 70.00064-70.004054s70.00064 31.402667 70.00064 70.004054c0 38.597973-31.402667 70.00064-70.00064 70.00064z m0-99.04128c-16.011947 0-29.04064 13.028693-29.04064 29.044053 0 16.011947 13.02528 29.04064 29.04064 29.04064s29.04064-13.02528 29.04064-29.04064c0-16.018773-13.028693-29.044053-29.04064-29.044053z" fill="#DDC93A" p-id="3233"></path><path d="M731.767467 760.333653m-49.52064 0a49.52064 49.52064 0 1 0 99.04128 0 49.52064 49.52064 0 1 0-99.04128 0Z" fill="#FFE60F" p-id="3234"></path><path d="M731.767467 830.337707c-38.597973 0-70.00064-31.402667-70.00064-70.004054 0-38.597973 31.402667-70.00064 70.00064-70.00064s70.00064 31.402667 70.00064 70.00064c0 38.601387-31.40608 70.004053-70.00064 70.004054z m0-99.044694c-16.011947 0-29.04064 13.02528-29.04064 29.04064s13.02528 29.044053 29.04064 29.044054 29.04064-13.028693 29.04064-29.044054-13.028693-29.04064-29.04064-29.04064z" fill="#DDC93A" p-id="3235"></path><path d="M439.52128 730.166613a20.401493 20.401493 0 0 1-8.506027-1.860266C262.826667 651.362987 249.627307 482.93888 249.14944 475.805013a20.476587 20.476587 0 0 1 19.060053-21.807786c11.287893-0.781653 21.019307 7.75168 21.804374 19.008853 0.443733 6.15424 12.537173 151.483733 158.04416 218.05056a20.48 20.48 0 0 1-8.536747 39.109973z" fill="#FFFFFF" p-id="3236"></path><path d="M263.625387 397.595307m-24.76032 0a24.76032 24.76032 0 1 0 49.52064 0 24.76032 24.76032 0 1 0-49.52064 0Z" fill="#FFFFFF" p-id="3237"></path><path d="M501.20704 848.745813c-116.169387-78.851413-177.343147-175.086933-199.79264-261.946026-20.456107-79.121067-34.4576-209.698133 19.442347-340.333227l-62.737067-71.000747C136.157867 287.624533 30.276267 473.81504 81.46944 643.044693c50.691413 167.56736 242.7392 273.073493 404.404907 300.315307l15.332693-94.614187z" fill="#FFE60F" p-id="3238"></path><path d="M485.874347 963.84a20.411733 20.411733 0 0 1-3.403094-0.283307c-88.961707-14.994773-178.432-50.7904-251.93472-100.799146-85.66784-58.289493-143.99488-132.212053-168.669866-213.783894C5.819733 463.694507 125.088427 269.981013 244.258133 160.392533a20.340053 20.340053 0 0 1 14.923094-5.379413 20.493653 20.493653 0 0 1 14.288213 6.89152l62.737067 71.000747a20.48 20.48 0 0 1 3.584 21.374293c-55.197013 133.782187-35.310933 262.546773-18.54464 327.396693 24.28928 93.979307 92.286293 182.811307 191.464106 250.125654a20.486827 20.486827 0 0 1 8.71424 20.224l-15.332693 94.614186a20.493653 20.493653 0 0 1-8.290987 13.37344 20.514133 20.514133 0 0 1-11.926186 3.826347z m-229.034667-758.893227C151.722667 308.350293 52.82816 477.63456 101.072213 637.11232c46.209707 152.753493 219.0336 251.35104 367.94368 282.241707l9.905494-61.139627c-101.587627-72.021333-171.461973-166.167893-197.338454-266.2912-17.547947-67.867307-38.222507-200.905387 15.588694-341.32992L256.83968 204.946773z" fill="#DDC93A" p-id="3239"></path><path d="M478.532267 893.238613m-49.517227 0a49.517227 49.517227 0 1 0 99.034453 0 49.517227 49.517227 0 1 0-99.034453 0Z" fill="#FFE60F" p-id="3240"></path><path d="M478.532267 963.23584c-38.597973 0-69.997227-31.399253-69.997227-69.997227s31.399253-69.997227 69.997227-69.997226c38.597973 0 69.997227 31.399253 69.997226 69.997226s-31.399253 69.997227-69.997226 69.997227z m0-99.03104c-16.011947 0-29.037227 13.02528-29.037227 29.037227s13.02528 29.037227 29.037227 29.037226 29.037227-13.02528 29.037226-29.037226-13.02528-29.037227-29.037226-29.037227z" fill="#DDC93A" p-id="3241"></path><path d="M230.642347 750.892373a20.4288 20.4288 0 0 1-15.23712-6.78912c-123.641173-137.547093-68.686507-297.301333-66.28352-304.032426a20.48 20.48 0 1 1 38.597973 13.718186c-2.092373 5.963093-48.756053 144.001707 58.15296 262.935894a20.48 20.48 0 0 1-15.230293 34.167466z" fill="#FFFFFF" p-id="3242"></path><path d="M282.29632 780.27776m-24.76032 0a24.76032 24.76032 0 1 0 49.52064 0 24.76032 24.76032 0 1 0-49.52064 0Z" fill="#FFFFFF" p-id="3243"></path><path d="M500.749653 735.904427m-24.76032 0a24.76032 24.76032 0 1 0 49.52064 0 24.76032 24.76032 0 1 0-49.52064 0Z" fill="#FFFFFF" p-id="3244"></path><path d="M715.789653 572.064427m-24.76032 0a24.76032 24.76032 0 1 0 49.52064 0 24.76032 24.76032 0 1 0-49.52064 0Z" fill="#FFFFFF" p-id="3245"></path><path d="M407.333547 107.485867c-13.60896-24.9856-40.328533-33.559893-62.324054-21.346987a17.708373 17.708373 0 0 0-4.1472 0.90112L170.837333 149.643947c-10.861227 3.771733-17.104213 17.343147-13.94688 30.313813l16.206507 66.542933c3.157333 12.970667 14.523733 20.4288 25.38496 16.653654l180.26496-62.603947a18.92352 18.92352 0 0 0 4.563627-2.362027c6.84032-1.204907 13.581653-4.082347 19.756373-8.884906 22.92736-17.80736 19.182933-54.442667 4.266667-81.8176z" fill="#FFE60F" p-id="3246"></path><path d="M192.750933 284.613973c-18.517333 0-34.781867-13.68064-39.550293-33.26976l-16.206507-66.542933c-0.426667-1.75104-2.351787-4.877653-3.898026-7.389867-4.007253-6.505813-10.062507-16.336213-5.8368-28.197546 1.491627-4.184747 5.60128-11.762347 16.377173-15.50336L334.155093 67.6864c1.419947-0.49152 2.863787-0.894293 4.32128-1.215147a63.361707 63.361707 0 0 1 27.368107-6.311253c24.44288 0 46.677333 14.0288 59.477333 37.5296 18.490027 33.92512 23.343787 82.131627-9.690453 107.78624-7.502507 5.829973-15.803733 9.87136-24.7296 12.035413-1.76128 0.938667-3.570347 1.733973-5.410133 2.37568l-180.292267 62.614187c-4.031147 1.399467-8.22272 2.112853-12.448427 2.112853z m-18.920106-118.016c1.163947 2.60096 2.208427 5.440853 2.955946 8.516267l16.206507 66.53952c0.16384 0.669013 0.36864 1.16736 0.5632 1.529173l178.13504-61.863253a20.76672 20.76672 0 0 1 8.06912-3.304107c3.81952-0.672427 7.43424-2.31424 10.738347-4.88448 12.88192-10.00448 9.530027-36.2496-1.14688-55.845546-5.512533-10.123947-14.301867-16.165547-23.507627-16.165547-3.734187 0-7.396693 0.98304-10.888533 2.921813a20.527787 20.527787 0 0 1-7.683414 2.450774L173.830827 166.597973z" fill="#DDC93A" p-id="3247"></path><path d="M194.36544 254.928213c-17.7152 22.995627-49.353387 23.18336-70.662827 0.426667-21.30944-22.760107-24.2176-59.849387-6.495573-82.845013 17.72544-22.992213 49.363627-23.18336 70.673067-0.41984 21.302613 22.749867 24.210773 59.845973 6.485333 82.838186z" fill="#FFE60F" p-id="3248"></path><path d="M160.126293 292.778667c-18.981547 0-37.225813-8.321707-51.370666-23.425707-28.306773-30.235307-31.720107-78.26432-7.768747-109.34272 12.42112-16.110933 30.815573-25.347413 50.469547-25.347413 18.98496 0 37.229227 8.321707 51.377493 23.432533 28.306773 30.231893 31.716693 78.260907 7.75168 109.339307-12.407467 16.100693-30.80192 25.344-50.459307 25.344z m-8.669866-117.159254c-7.05536 0-13.29152 3.249493-18.029227 9.393494-11.63264 15.090347-9.239893 40.891733 5.225813 56.34048 6.31808 6.744747 13.943467 10.461867 21.47328 10.461866 7.051947 0 13.284693-3.24608 18.015574-9.39008 11.64288-15.097173 9.253547-40.895147-5.208747-56.34048-6.321493-6.74816-13.94688-10.46528-21.476693-10.46528z" fill="#DDC93A" p-id="3249"></path></svg>